<?xml version="1.0" standalone="no"?>
<!DOCTYPE svg PUBLIC "-//W3C//DTD SVG 20010904//EN"
 "http://www.w3.org/TR/2001/REC-SVG-20010904/DTD/svg10.dtd">
<svg version="1.0" xmlns="http://www.w3.org/2000/svg"
 width="700.000000pt" height="700.000000pt" viewBox="0 0 700.000000 700.000000"
 preserveAspectRatio="xMidYMid meet">
<metadata>
Created by potrace 1.14, written by Peter Selinger 2001-2017
</metadata>
<g transform="translate(0.000000,700.000000) scale(0.100000,-0.100000)"
fill="#000000" stroke="none">
<path d="M5687 6028 c-41 -40 -173 -167 -292 -283 -120 -115 -252 -244 -295
-285 -69 -68 -385 -372 -597 -576 -44 -44 -179 -173 -298 -289 -120 -115 -254
-245 -299 -288 -44 -43 -186 -180 -315 -305 -129 -125 -256 -247 -281 -272
-26 -25 -150 -145 -276 -266 -126 -122 -259 -250 -296 -285 -54 -52 -502 -486
-556 -539 -14 -13 -11 -15 24 -21 21 -4 67 -10 101 -13 35 -4 68 -8 75 -11 7
-2 40 -6 73 -9 33 -4 69 -8 80 -10 11 -2 45 -7 76 -10 31 -4 65 -8 75 -10 11
-2 51 -7 89 -12 39 -4 73 -9 78 -10 4 -1 15 -2 25 -3 10 -1 24 -19 36 -49 11
-26 65 -155 122 -287 56 -132 159 -375 228 -540 70 -165 133 -313 140 -330 24
-54 94 -218 141 -330 25 -60 55 -130 66 -155 11 -25 57 -133 103 -240 45 -107
87 -195 94 -195 7 0 58 136 121 320 60 176 161 473 226 660 64 187 136 399
161 470 84 249 233 682 339 990 59 171 109 319 112 330 2 11 9 29 14 40 5 11
20 54 33 95 14 41 70 208 126 370 125 363 235 687 260 760 10 30 57 168 105
305 73 209 96 279 110 325 1 3 4 12 8 20 3 8 67 195 142 415 75 220 152 444
170 498 19 53 32 97 30 97 -2 0 -37 -33 -78 -72z"/>
<path d="M3618 4907 c-64 -45 -182 -127 -263 -182 -81 -55 -153 -104 -159
-110 -6 -5 -49 -35 -96 -67 -47 -31 -130 -87 -185 -125 -140 -96 -563 -388
-665 -458 -82 -56 -730 -503 -895 -616 -44 -31 -125 -86 -180 -124 -190 -130
-520 -358 -542 -374 -12 -9 -23 -19 -23 -22 0 -4 33 -10 73 -14 39 -4 81 -9
92 -11 11 -2 60 -8 108 -14 49 -6 103 -12 120 -15 64 -9 253 -34 302 -40 28
-3 59 -8 70 -10 24 -5 52 21 700 650 80 78 496 480 600 580 85 82 463 447 679
656 72 70 190 183 261 253 72 69 128 125 125 125 -3 0 -57 -37 -122 -82z"/>
</g>
</svg>
